<svg width="24" height="24" viewBox="0 0 24 24" fill="none" xmlns="http://www.w3.org/2000/svg">
<path d="M12 10.3125C12.9141 10.3125 13.6875 11.0859 13.6875 12C13.6875 12.9492 12.9141 13.6875 12 13.6875C11.0508 13.6875 10.3125 12.9492 10.3125 12C10.3125 11.0859 11.0508 10.3125 12 10.3125ZM10.3125 6.65625C10.3125 5.74219 11.0508 4.96875 12 4.96875C12.9141 4.96875 13.6875 5.74219 13.6875 6.65625C13.6875 7.60547 12.9141 8.34375 12 8.34375C11.0508 8.34375 10.3125 7.60547 10.3125 6.65625ZM10.3125 17.3438C10.3125 16.4297 11.0508 15.6562 12 15.6562C12.9141 15.6562 13.6875 16.4297 13.6875 17.3438C13.6875 18.293 12.9141 19.0312 12 19.0312C11.0508 19.0312 10.3125 18.293 10.3125 17.3438Z" fill="#2E1401"/>
</svg>
